# 3ds Max Wavefront OBJ Exporter v0.97b - (c)2007 guruware
# File Created: 26.10.2017 21:30:42

#
# object Box001
#

v  -0.0904 1.7993 0.0944
v  -0.0003 1.6602 0.1340
v  -0.0003 1.6602 0.0017
v  -0.0971 1.8518 0.0017
v  0.0898 1.7993 0.0944
v  0.0966 1.8518 0.0017
v  -0.0003 1.6602 -0.1306
v  -0.0904 1.7993 -0.0910
v  0.0898 1.7993 -0.0910
v  -0.0731 1.4068 0.0766
v  -0.0003 1.4068 0.1086
v  -0.0003 1.5485 0.1340
v  -0.0904 1.5485 0.0944
v  0.0726 1.4068 0.0766
v  0.0898 1.5485 0.0944
v  0.1037 1.4068 0.0017
v  0.1283 1.5485 0.0017
v  0.0726 1.4068 -0.0733
v  0.0898 1.5485 -0.0910
v  0.2671 1.7937 0.0764
v  0.3041 1.7445 0.0017
v  0.3041 1.9432 0.0017
v  0.2671 1.8940 0.0764
v  0.2671 1.7937 -0.0731
v  0.2671 1.8940 -0.0731
v  -0.0003 1.4068 -0.1053
v  -0.0003 1.5485 -0.1306
v  -0.0731 1.4068 -0.0733
v  -0.0904 1.5485 -0.0910
v  -0.1042 1.4068 0.0017
v  -0.1288 1.5485 0.0017
v  -0.2676 1.7937 -0.0731
v  -0.3046 1.7445 0.0017
v  -0.3046 1.9432 0.0017
v  -0.2676 1.8940 -0.0731
v  -0.2676 1.7937 0.0764
v  -0.2676 1.8940 0.0764
v  -0.1042 0.0005 0.0017
v  -0.0731 0.0005 0.0766
v  -0.0731 0.0005 -0.0733
v  -0.0003 0.0005 -0.1053
v  0.0726 0.0005 -0.0733
v  0.1037 0.0005 0.0017
v  0.0726 0.0005 0.0766
v  -0.0003 0.0005 0.1086
v  -0.0633 -0.0816 0.0665
v  -0.0688 -0.1263 0.0017
v  -0.0003 -0.1932 0.0017
v  -0.0003 -0.1263 0.0722
v  0.0627 -0.0816 0.0665
v  0.0683 -0.1263 0.0017
v  -0.0633 -0.0816 -0.0632
v  -0.0003 -0.1263 -0.0689
v  0.0627 -0.0816 -0.0632
# 54 vertices

vn 0.8512 0.5107 0.1210
vn -0.0318 0.9975 0.0631
vn -0.0000 1.0000 -0.0000
vn 0.8549 0.5181 0.0272
vn -0.7494 0.6077 0.2627
vn -0.8549 0.5181 -0.0272
vn 0.0318 0.9975 -0.0631
vn 0.7494 0.6077 -0.2627
vn -0.8512 0.5107 -0.1210
vn -0.3959 -0.1750 0.9014
vn 0.0000 -0.1906 0.9817
vn 0.0000 -0.0935 0.9956
vn -0.4007 -0.0860 0.9122
vn 0.3959 -0.1750 0.9014
vn 0.4007 -0.0860 0.9122
vn -0.0000 0.0000 1.0000
vn -0.4022 0.0000 0.9156
vn 0.4022 0.0000 0.9156
vn 0.9100 -0.1717 0.3775
vn 0.9827 -0.1854 -0.0000
vn 0.9100 -0.1717 -0.3775
vn 0.8962 0.0000 0.4436
vn 1.0000 0.0000 -0.0000
vn 1.0000 0.0000 0.0000
vn 0.8962 0.0000 -0.4436
vn 0.8962 -0.0000 -0.4436
vn 0.3959 -0.1750 -0.9014
vn 0.0000 -0.1906 -0.9817
vn -0.0000 -0.0935 -0.9956
vn 0.4007 -0.0860 -0.9122
vn -0.3959 -0.1750 -0.9014
vn -0.4007 -0.0860 -0.9122
vn -0.0000 -0.0000 -1.0000
vn 0.4022 -0.0000 -0.9156
vn -0.4022 -0.0000 -0.9156
vn -0.9100 -0.1717 -0.3775
vn -0.9827 -0.1854 0.0000
vn -0.9100 -0.1717 0.3775
vn -0.8962 -0.0000 -0.4436
vn -1.0000 0.0000 0.0000
vn -1.0000 -0.0000 -0.0000
vn -0.8962 0.0000 0.4436
vn 0.3421 0.8430 0.4151
vn 0.3900 0.8601 0.3289
vn 0.3693 0.8346 -0.4087
vn 0.3519 0.8673 -0.3521
vn -0.1007 -0.0000 -0.9949
vn -0.6869 -0.6685 -0.2850
vn -0.6505 -0.4623 -0.6026
vn -0.7589 -0.5701 0.3148
vn -0.5656 -0.5505 0.6140
vn -0.1007 0.0000 0.9949
vn -0.3693 0.8346 0.4087
vn -0.3519 0.8673 0.3521
vn 0.1007 0.0000 0.9949
vn 0.6869 -0.6685 0.2850
vn 0.6505 -0.4623 0.6026
vn 0.7589 -0.5701 -0.3148
vn 0.5656 -0.5505 -0.6140
vn 0.1007 -0.0000 -0.9949
vn 0.1007 0.0000 -0.9949
vn -0.3421 0.8430 -0.4151
vn -0.3900 0.8601 -0.3289
vn -0.9237 -0.0000 0.3832
vn -0.9237 0.0000 -0.3832
vn -0.4022 0.0000 -0.9156
vn 0.4022 0.0000 -0.9156
vn 0.9237 0.0000 -0.3832
vn 0.9237 -0.0000 0.3832
vn 0.4022 -0.0000 0.9156
vn -0.4022 -0.0000 0.9156
vn -0.7016 -0.1831 0.6886
vn -0.9725 -0.2331 0.0000
vn -0.6610 -0.3758 0.6495
vn -0.8067 -0.5910 0.0000
vn 0.0000 -1.0000 -0.0000
vn 0.0000 -0.6007 0.7995
vn 0.0000 -0.2387 0.9711
vn 0.6610 -0.3758 0.6495
vn 0.8067 -0.5910 -0.0000
vn 0.9725 -0.2331 -0.0000
vn 0.7016 -0.1831 0.6886
vn -0.7016 -0.1831 -0.6886
vn -0.6610 -0.3758 -0.6495
vn -0.0000 -0.2387 -0.9711
vn -0.0000 -0.6007 -0.7995
vn 0.6610 -0.3758 -0.6495
vn 0.7016 -0.1831 -0.6886
# 88 vertex normals

vt 0.0000 0.0000 0.0000
vt 0.5000 0.0000 0.0000
vt 0.5000 0.5000 0.0000
vt 0.0000 0.5000 0.0000
vt 1.0000 0.0000 0.0000
vt 1.0000 0.5000 0.0000
vt 0.5000 1.0000 0.0000
vt 0.0000 1.0000 0.0000
vt 1.0000 1.0000 0.0000
vt 0.7500 0.2500 0.0000
vt 0.7500 0.5000 0.0000
vt 0.5000 0.2500 0.0000
vt 0.2500 0.2500 0.0000
vt 0.2500 0.5000 0.0000
vt 0.7500 0.7500 0.0000
vt 0.5000 0.7500 0.0000
vt 0.2500 0.7500 0.0000
# 17 texture coords

o Box001
g Box001
f 1/1/1 2/2/2 3/3/3 
f 3/3/3 4/4/4 1/1/1 
f 2/2/2 5/5/5 6/6/6 
f 6/6/6 3/3/3 2/2/2 
f 4/4/4 3/3/3 7/7/7 
f 7/7/7 8/8/8 4/4/4 
f 3/3/3 6/6/6 9/9/9 
f 9/9/9 7/7/7 3/3/3 
f 10/1/10 11/2/11 12/3/12 
f 12/3/12 13/4/13 10/1/10 
f 11/2/11 14/5/14 15/6/15 
f 15/6/15 12/3/12 11/2/11 
f 13/4/13 12/3/12 2/7/16 
f 2/7/16 1/8/17 13/4/13 
f 12/3/12 15/6/15 5/9/18 
f 5/9/18 2/7/16 12/3/12 
f 14/1/19 16/2/20 17/3/20 
f 17/3/20 15/4/19 14/1/19 
f 16/2/20 18/5/21 19/6/21 
f 19/6/21 17/3/20 16/2/20 
f 20/4/22 21/3/23 22/7/24 
f 22/7/24 23/8/22 20/4/22 
f 21/3/23 24/6/25 25/9/26 
f 25/9/26 22/7/24 21/3/23 
f 18/1/27 26/2/28 27/3/29 
f 27/3/29 19/4/30 18/1/27 
f 26/2/28 28/5/31 29/6/32 
f 29/6/32 27/3/29 26/2/28 
f 19/4/30 27/3/29 7/7/33 
f 7/7/33 9/8/34 19/4/30 
f 27/3/29 29/6/32 8/9/35 
f 8/9/35 7/7/33 27/3/29 
f 28/1/36 30/2/37 31/3/37 
f 31/3/37 29/4/36 28/1/36 
f 30/2/37 10/5/38 13/6/38 
f 13/6/38 31/3/37 30/2/37 
f 32/4/39 33/3/40 34/7/41 
f 34/7/41 35/8/39 32/4/39 
f 33/3/40 36/6/42 37/9/42 
f 37/9/42 34/7/41 33/3/40 
f 1/9/43 4/7/43 34/7/43 
f 34/7/44 37/9/44 1/9/44 
f 4/7/45 8/8/45 35/8/45 
f 35/8/46 34/7/46 4/7/46 
f 8/8/47 29/4/47 32/4/47 
f 32/4/47 35/8/47 8/8/47 
f 29/4/48 31/3/48 33/3/48 
f 33/3/49 32/4/49 29/4/49 
f 31/3/50 13/6/50 36/6/50 
f 36/6/51 33/3/51 31/3/51 
f 13/6/52 1/9/52 37/9/52 
f 37/9/52 36/6/52 13/6/52 
f 6/7/53 5/8/53 23/8/53 
f 23/8/54 22/7/54 6/7/54 
f 5/8/55 15/4/55 20/4/55 
f 20/4/55 23/8/55 5/8/55 
f 15/4/56 17/3/56 21/3/56 
f 21/3/57 20/4/57 15/4/57 
f 17/3/58 19/6/58 24/6/58 
f 24/6/59 21/3/59 17/3/59 
f 19/6/60 9/9/60 25/9/60 
f 25/9/61 24/6/61 19/6/61 
f 9/9/62 6/7/62 22/7/62 
f 22/7/63 25/9/63 9/9/63 
f 10/5/64 30/6/64 38/6/64 
f 38/6/64 39/5/64 10/5/64 
f 30/6/65 28/9/65 40/9/65 
f 40/9/65 38/6/65 30/6/65 
f 28/9/66 26/7/66 41/7/66 
f 41/7/66 40/9/66 28/9/66 
f 26/7/67 18/8/67 42/8/67 
f 42/8/67 41/7/67 26/7/67 
f 18/8/68 16/4/68 43/4/68 
f 43/4/68 42/8/68 18/8/68 
f 16/4/69 14/1/69 44/1/69 
f 44/1/69 43/4/69 16/4/69 
f 14/1/70 11/2/70 45/2/70 
f 45/2/70 44/1/70 14/1/70 
f 11/2/71 10/5/71 39/5/71 
f 39/5/71 45/2/71 11/2/71 
f 39/5/72 38/6/73 46/10/74 
f 38/6/73 47/11/75 46/10/74 
f 48/3/76 49/12/77 46/10/74 
f 46/10/74 47/11/75 48/3/76 
f 45/2/78 39/5/72 46/10/74 
f 49/12/77 45/2/78 46/10/74 
f 45/2/78 49/12/77 50/13/79 
f 48/3/76 51/14/80 50/13/79 
f 50/13/79 49/12/77 48/3/76 
f 43/4/81 44/1/82 50/13/79 
f 51/14/80 43/4/81 50/13/79 
f 44/1/82 45/2/78 50/13/79 
f 38/6/73 40/9/83 52/15/84 
f 47/11/75 38/6/73 52/15/84 
f 40/9/83 41/7/85 52/15/84 
f 41/7/85 53/16/86 52/15/84 
f 48/3/76 47/11/75 52/15/84 
f 52/15/84 53/16/86 48/3/76 
f 48/3/76 53/16/86 54/17/87 
f 54/17/87 51/14/80 48/3/76 
f 41/7/85 42/8/88 54/17/87 
f 53/16/86 41/7/85 54/17/87 
f 42/8/88 43/4/81 54/17/87 
f 43/4/81 51/14/80 54/17/87 
# 104 faces

