# 3ds Max Wavefront OBJ Exporter v0.97b - (c)2007 guruware
# File Created: 26.02.2016 01:41:50

mtllib motor.mtl

#
# object Box001
#

v  -0.1854 1.7993 0.1922
v  -0.0003 1.5111 0.2735
v  -0.0003 1.5111 0.0017
v  -0.1993 1.8518 0.0017
v  0.1849 1.7993 0.1922
v  0.1987 1.8518 0.0017
v  -0.0003 1.5111 -0.2701
v  -0.1854 1.7993 -0.1888
v  0.1849 1.7993 -0.1888
v  -0.1499 1.2578 0.1557
v  -0.0003 1.2578 0.2214
v  -0.0003 1.3994 0.2735
v  -0.1854 1.3994 0.1922
v  0.1494 1.2578 0.1557
v  0.1849 1.3994 0.1922
v  0.2133 1.2578 0.0017
v  0.2639 1.3994 0.0017
v  0.1494 1.2578 -0.1523
v  0.1849 1.3994 -0.1888
v  0.5490 1.6447 0.1553
v  0.6251 1.5955 0.0017
v  0.6251 1.9432 0.0017
v  0.5490 1.8940 0.1553
v  0.5490 1.6447 -0.1520
v  0.5490 1.8940 -0.1520
v  -0.0003 1.2578 -0.2181
v  -0.0003 1.3994 -0.2701
v  -0.1499 1.2578 -0.1523
v  -0.1854 1.3994 -0.1888
v  -0.2138 1.2578 0.0017
v  -0.2644 1.3994 0.0017
v  -0.5496 1.6447 -0.1520
v  -0.6256 1.5955 0.0017
v  -0.6256 1.9432 0.0017
v  -0.5496 1.8940 -0.1520
v  -0.5496 1.6447 0.1553
v  -0.5496 1.8940 0.1553
v  -0.2138 0.0005 0.0017
v  -0.1499 0.0005 0.1557
v  -0.1499 0.0005 -0.1523
v  -0.0003 0.0005 -0.2181
v  0.1494 0.0005 -0.1523
v  0.2133 0.0005 0.0017
v  0.1494 0.0005 0.1557
v  -0.0003 0.0005 0.2214
v  -0.1297 -0.0816 0.1349
v  -0.1411 -0.1263 0.0017
v  -0.0003 -0.1932 0.0017
v  -0.0003 -0.1263 0.1466
v  0.1292 -0.0816 0.1349
v  0.1406 -0.1263 0.0017
v  -0.1297 -0.0816 -0.1315
v  -0.0003 -0.1263 -0.1433
v  0.1292 -0.0816 -0.1315
# 54 vertices

vn 0.8348 0.5487 0.0464
vn -0.0121 0.9996 0.0237
vn -0.0000 1.0000 -0.0000
vn 0.8351 0.5499 0.0133
vn -0.8037 0.5881 0.0909
vn -0.8351 0.5499 -0.0133
vn 0.0121 0.9996 -0.0237
vn 0.8037 0.5881 -0.0909
vn -0.8348 0.5487 -0.0464
vn -0.3777 -0.3431 0.8600
vn 0.0000 -0.3705 0.9288
vn -0.0000 -0.1803 0.9836
vn -0.3965 -0.1668 0.9027
vn 0.3777 -0.3431 0.8600
vn 0.3965 -0.1668 0.9027
vn -0.0000 0.0000 1.0000
vn -0.4022 0.0000 0.9156
vn 0.4022 0.0000 0.9156
vn 0.8696 -0.3371 0.3608
vn 0.9324 -0.3615 -0.0000
vn 0.8696 -0.3371 -0.3608
vn 0.8962 0.0000 0.4436
vn 1.0000 0.0000 -0.0000
vn 1.0000 0.0000 0.0000
vn 0.8962 0.0000 -0.4436
vn 0.3777 -0.3431 -0.8600
vn 0.0000 -0.3705 -0.9288
vn 0.0000 -0.1803 -0.9836
vn 0.3965 -0.1668 -0.9027
vn -0.3777 -0.3431 -0.8600
vn -0.3965 -0.1668 -0.9027
vn 0.0000 0.0000 -1.0000
vn 0.4022 0.0000 -0.9156
vn -0.4022 0.0000 -0.9156
vn -0.8696 -0.3371 -0.3608
vn -0.9324 -0.3615 0.0000
vn -0.8696 -0.3371 0.3608
vn -0.8962 0.0000 -0.4436
vn -1.0000 0.0000 0.0000
vn -1.0000 0.0000 -0.0000
vn -0.8962 0.0000 0.4436
vn 0.1886 0.9550 0.2289
vn 0.2120 0.9608 0.1788
vn 0.2051 0.9521 -0.2269
vn 0.1902 0.9631 -0.1903
vn -0.1007 0.0000 -0.9949
vn -0.4398 -0.8794 -0.1824
vn -0.5006 -0.7310 -0.4637
vn -0.5304 -0.8187 0.2200
vn -0.4024 -0.8046 0.4368
vn -0.1007 0.0000 0.9949
vn -0.2051 0.9521 0.2269
vn -0.1902 0.9631 0.1903
vn 0.1007 0.0000 0.9949
vn 0.4398 -0.8794 0.1824
vn 0.5006 -0.7310 0.4637
vn 0.5304 -0.8187 -0.2200
vn 0.4024 -0.8046 -0.4368
vn 0.1007 0.0000 -0.9949
vn -0.1886 0.9550 -0.2289
vn -0.2120 0.9608 -0.1788
vn -0.9237 0.0000 0.3832
vn -0.9237 0.0000 -0.3832
vn 0.9237 0.0000 -0.3832
vn 0.9237 0.0000 0.3832
vn -0.6659 -0.3575 0.6548
vn -0.8815 -0.4722 0.0000
vn -0.5729 -0.5975 0.5610
vn -0.6370 -0.7709 0.0000
vn 0.0000 -1.0000 -0.0000
vn 0.0000 -0.7780 0.6283
vn -0.0000 -0.4813 0.8765
vn 0.5729 -0.5975 0.5610
vn 0.6370 -0.7709 -0.0000
vn 0.8815 -0.4722 -0.0000
vn 0.6659 -0.3575 0.6548
vn -0.6659 -0.3575 -0.6548
vn -0.5729 -0.5975 -0.5610
vn 0.0000 -0.4813 -0.8765
vn -0.0000 -0.7780 -0.6283
vn 0.5729 -0.5975 -0.5610
vn 0.6659 -0.3575 -0.6548
# 82 vertex normals

vt 0.0000 0.0000 0.0000
vt 0.5000 0.0000 0.0000
vt 0.5000 0.5000 0.0000
vt 0.0000 0.5000 0.0000
vt 1.0000 0.0000 0.0000
vt 1.0000 0.5000 0.0000
vt 0.5000 1.0000 0.0000
vt 0.0000 1.0000 0.0000
vt 1.0000 1.0000 0.0000
vt 0.7500 0.2500 0.0000
vt 0.7500 0.5000 0.0000
vt 0.5000 0.2500 0.0000
vt 0.2500 0.2500 0.0000
vt 0.2500 0.5000 0.0000
vt 0.7500 0.7500 0.0000
vt 0.5000 0.7500 0.0000
vt 0.2500 0.7500 0.0000
# 17 texture coords

g Box001
usemtl wire_216189006
s 4
f 1/1/1 2/2/2 3/3/3 
f 3/3/3 4/4/4 1/1/1 
f 2/2/2 5/5/5 6/6/6 
f 6/6/6 3/3/3 2/2/2 
f 4/4/4 3/3/3 7/7/7 
f 7/7/7 8/8/8 4/4/4 
f 3/3/3 6/6/6 9/9/9 
f 9/9/9 7/7/7 3/3/3 
s 8
f 10/1/10 11/2/11 12/3/12 
f 12/3/12 13/4/13 10/1/10 
f 11/2/11 14/5/14 15/6/15 
f 15/6/15 12/3/12 11/2/11 
f 13/4/13 12/3/12 2/7/16 
f 2/7/16 1/8/17 13/4/13 
f 12/3/12 15/6/15 5/9/18 
f 5/9/18 2/7/16 12/3/12 
s 16
f 14/1/19 16/2/20 17/3/20 
f 17/3/20 15/4/19 14/1/19 
f 16/2/20 18/5/21 19/6/21 
f 19/6/21 17/3/20 16/2/20 
f 20/4/22 21/3/23 22/7/24 
f 22/7/24 23/8/22 20/4/22 
f 21/3/23 24/6/25 25/9/25 
f 25/9/25 22/7/24 21/3/23 
s 32
f 18/1/26 26/2/27 27/3/28 
f 27/3/28 19/4/29 18/1/26 
f 26/2/27 28/5/30 29/6/31 
f 29/6/31 27/3/28 26/2/27 
f 19/4/29 27/3/28 7/7/32 
f 7/7/32 9/8/33 19/4/29 
f 27/3/28 29/6/31 8/9/34 
f 8/9/34 7/7/32 27/3/28 
s 64
f 28/1/35 30/2/36 31/3/36 
f 31/3/36 29/4/35 28/1/35 
f 30/2/36 10/5/37 13/6/37 
f 13/6/37 31/3/36 30/2/36 
f 32/4/38 33/3/39 34/7/40 
f 34/7/40 35/8/38 32/4/38 
f 33/3/39 36/6/41 37/9/41 
f 37/9/41 34/7/40 33/3/39 
s off
f 1/9/42 4/7/42 34/7/42 
f 34/7/43 37/9/43 1/9/43 
f 4/7/44 8/8/44 35/8/44 
f 35/8/45 34/7/45 4/7/45 
f 8/8/46 29/4/46 32/4/46 
f 32/4/46 35/8/46 8/8/46 
f 29/4/47 31/3/47 33/3/47 
f 33/3/48 32/4/48 29/4/48 
f 31/3/49 13/6/49 36/6/49 
f 36/6/50 33/3/50 31/3/50 
f 13/6/51 1/9/51 37/9/51 
f 37/9/51 36/6/51 13/6/51 
f 6/7/52 5/8/52 23/8/52 
f 23/8/53 22/7/53 6/7/53 
f 5/8/54 15/4/54 20/4/54 
f 20/4/54 23/8/54 5/8/54 
f 15/4/55 17/3/55 21/3/55 
f 21/3/56 20/4/56 15/4/56 
f 17/3/57 19/6/57 24/6/57 
f 24/6/58 21/3/58 17/3/58 
f 19/6/59 9/9/59 25/9/59 
f 25/9/59 24/6/59 19/6/59 
f 9/9/60 6/7/60 22/7/60 
f 22/7/61 25/9/61 9/9/61 
f 10/5/62 30/6/62 38/6/62 
f 38/6/62 39/5/62 10/5/62 
f 30/6/63 28/9/63 40/9/63 
f 40/9/63 38/6/63 30/6/63 
f 28/9/34 26/7/34 41/7/34 
f 41/7/34 40/9/34 28/9/34 
f 26/7/33 18/8/33 42/8/33 
f 42/8/33 41/7/33 26/7/33 
f 18/8/64 16/4/64 43/4/64 
f 43/4/64 42/8/64 18/8/64 
f 16/4/65 14/1/65 44/1/65 
f 44/1/65 43/4/65 16/4/65 
f 14/1/18 11/2/18 45/2/18 
f 45/2/18 44/1/18 14/1/18 
f 11/2/17 10/5/17 39/5/17 
f 39/5/17 45/2/17 11/2/17 
s 2
f 39/5/66 38/6/67 46/10/68 
f 38/6/67 47/11/69 46/10/68 
f 48/3/70 49/12/71 46/10/68 
f 46/10/68 47/11/69 48/3/70 
f 45/2/72 39/5/66 46/10/68 
f 49/12/71 45/2/72 46/10/68 
f 45/2/72 49/12/71 50/13/73 
f 48/3/70 51/14/74 50/13/73 
f 50/13/73 49/12/71 48/3/70 
f 43/4/75 44/1/76 50/13/73 
f 51/14/74 43/4/75 50/13/73 
f 44/1/76 45/2/72 50/13/73 
f 38/6/67 40/9/77 52/15/78 
f 47/11/69 38/6/67 52/15/78 
f 40/9/77 41/7/79 52/15/78 
f 41/7/79 53/16/80 52/15/78 
f 48/3/70 47/11/69 52/15/78 
f 52/15/78 53/16/80 48/3/70 
f 48/3/70 53/16/80 54/17/81 
f 54/17/81 51/14/74 48/3/70 
f 41/7/79 42/8/82 54/17/81 
f 53/16/80 41/7/79 54/17/81 
f 42/8/82 43/4/75 54/17/81 
f 43/4/75 51/14/74 54/17/81 
# 104 faces

